<mxfile host="app.diagrams.net" agent="Mozilla/5.0 (Windows NT 10.0; Win64; x64) AppleWebKit/537.36 (KHTML, like Gecko) Chrome/130.0.0.0 Safari/537.36" version="24.8.6">
  <diagram name="Trang-1" id="Jc8BqXHG962UGulaFNEW">
    <mxGraphModel dx="1050" dy="522" grid="1" gridSize="10" guides="1" tooltips="1" connect="1" arrows="1" fold="1" page="1" pageScale="1" pageWidth="827" pageHeight="1169" math="0" shadow="0">
      <root>
        <mxCell id="0" />
        <mxCell id="1" parent="0" />
        <mxCell id="AAQ3Jji8HPWY4cC5NEhm-3" value="" style="edgeStyle=orthogonalEdgeStyle;rounded=0;orthogonalLoop=1;jettySize=auto;html=1;" edge="1" parent="1" source="AAQ3Jji8HPWY4cC5NEhm-1" target="AAQ3Jji8HPWY4cC5NEhm-2">
          <mxGeometry relative="1" as="geometry" />
        </mxCell>
        <mxCell id="AAQ3Jji8HPWY4cC5NEhm-1" value="start" style="ellipse;whiteSpace=wrap;html=1;" vertex="1" parent="1">
          <mxGeometry x="360" y="130" width="120" height="80" as="geometry" />
        </mxCell>
        <mxCell id="AAQ3Jji8HPWY4cC5NEhm-5" value="" style="edgeStyle=orthogonalEdgeStyle;rounded=0;orthogonalLoop=1;jettySize=auto;html=1;" edge="1" parent="1" source="AAQ3Jji8HPWY4cC5NEhm-2" target="AAQ3Jji8HPWY4cC5NEhm-4">
          <mxGeometry relative="1" as="geometry" />
        </mxCell>
        <mxCell id="AAQ3Jji8HPWY4cC5NEhm-2" value="input a,b" style="whiteSpace=wrap;html=1;" vertex="1" parent="1">
          <mxGeometry x="360" y="250" width="120" height="60" as="geometry" />
        </mxCell>
        <mxCell id="AAQ3Jji8HPWY4cC5NEhm-7" value="" style="edgeStyle=orthogonalEdgeStyle;rounded=0;orthogonalLoop=1;jettySize=auto;html=1;" edge="1" parent="1" source="AAQ3Jji8HPWY4cC5NEhm-4" target="AAQ3Jji8HPWY4cC5NEhm-6">
          <mxGeometry relative="1" as="geometry" />
        </mxCell>
        <mxCell id="AAQ3Jji8HPWY4cC5NEhm-4" value="sum= a+b" style="whiteSpace=wrap;html=1;" vertex="1" parent="1">
          <mxGeometry x="360" y="390" width="120" height="60" as="geometry" />
        </mxCell>
        <mxCell id="AAQ3Jji8HPWY4cC5NEhm-9" value="" style="edgeStyle=orthogonalEdgeStyle;rounded=0;orthogonalLoop=1;jettySize=auto;html=1;" edge="1" parent="1" source="AAQ3Jji8HPWY4cC5NEhm-6" target="AAQ3Jji8HPWY4cC5NEhm-8">
          <mxGeometry relative="1" as="geometry" />
        </mxCell>
        <mxCell id="AAQ3Jji8HPWY4cC5NEhm-6" value="output sum" style="whiteSpace=wrap;html=1;" vertex="1" parent="1">
          <mxGeometry x="360" y="490" width="120" height="60" as="geometry" />
        </mxCell>
        <mxCell id="AAQ3Jji8HPWY4cC5NEhm-8" value="end" style="ellipse;whiteSpace=wrap;html=1;" vertex="1" parent="1">
          <mxGeometry x="380" y="585" width="80" height="80" as="geometry" />
        </mxCell>
      </root>
    </mxGraphModel>
  </diagram>
</mxfile>
